<svg width="196" height="50" viewBox="0 0 196 50" fill="none" xmlns="http://www.w3.org/2000/svg">
  <rect width="50" height="50" rx="15" fill="#1444EF" />
  <path d="M25.419 30.075c-3.297-1.988-3.206-6.798.163-8.66l16.677-9.212c3.37-1.861 7.49.622 7.417 4.47l-.36 19.05c-.072 3.848-4.284 6.175-7.58 4.188z" fill="#00FFA3" />
  <path d="M87.34 23.54q0 1.68-.81 3.15-.78 1.47-2.49 2.37-1.68.9-4.26.9h-3.51V38h-4.2V17.06h7.71q2.43 0 4.14.84t2.55 2.31q.87 1.47.87 3.33m-7.74 3.03q1.74 0 2.58-.78.84-.81.84-2.25 0-3.06-3.42-3.06h-3.33v6.09zm9.642 3.06q0-2.52.99-4.47 1.02-1.95 2.73-3 1.74-1.05 3.87-1.05 1.86 0 3.24.75 1.41.75 2.25 1.89v-2.37h4.23V38h-4.23v-2.43q-.81 1.17-2.25 1.95-1.41.75-3.27.75-2.1 0-3.84-1.08-1.71-1.08-2.73-3.03-.99-1.98-.99-4.53m13.08.06q0-1.53-.6-2.61-.6-1.11-1.62-1.68-1.02-.6-2.19-.6t-2.16.57-1.62 1.68q-.6 1.08-.6 2.58t.6 2.64q.63 1.11 1.62 1.71 1.02.6 2.16.6 1.17 0 2.19-.57 1.02-.6 1.62-1.68.6-1.11.6-2.64m10.462-10.29q-1.11 0-1.86-.69-.72-.72-.72-1.77t.72-1.74q.75-.72 1.86-.72t1.83.72q.75.69.75 1.74t-.75 1.77q-.72.69-1.83.69m2.07 1.98V38h-4.2V21.38zm3.07 8.25q0-2.52.99-4.47 1.02-1.95 2.76-3t3.87-1.05q1.62 0 3.09.72 1.47.69 2.34 1.86V15.8h4.26V38h-4.26v-2.46q-.78 1.23-2.19 1.98t-3.27.75q-2.1 0-3.84-1.08t-2.76-3.03q-.99-1.98-.99-4.53m13.08.06q0-1.53-.6-2.61-.6-1.11-1.62-1.68-1.02-.6-2.19-.6t-2.16.57-1.62 1.68q-.6 1.08-.6 2.58t.6 2.64q.63 1.11 1.62 1.71 1.02.6 2.16.6 1.17 0 2.19-.57 1.02-.6 1.62-1.68.6-1.11.6-2.64m10.462-10.29q-1.11 0-1.86-.69-.72-.72-.72-1.77t.72-1.74q.75-.72 1.86-.72t1.83.72q.75.69.75 1.74t-.75 1.77q-.72.69-1.83.69m2.07 1.98V38h-4.2V21.38zm13.359-.24q2.97 0 4.8 1.89 1.83 1.86 1.83 5.22V38h-4.2v-9.18q0-1.98-.99-3.03-.99-1.08-2.7-1.08-1.74 0-2.76 1.08-.99 1.05-.99 3.03V38h-4.2V21.38h4.2v2.07q.84-1.08 2.13-1.68a6.6 6.6 0 0 1 2.88-.63m12.484 17.07q-1.14 0-1.89-.69-.72-.72-.72-1.77t.72-1.74q.75-.72 1.89-.72 1.11 0 1.83.72.72.69.72 1.74t-.72 1.77q-.72.69-1.83.69" fill="#fff" />
</svg>